<mxfile host="app.diagrams.net" modified="2023-04-04T19:46:15.802Z" agent="Mozilla/5.0 (Windows NT 10.0; Win64; x64; rv:109.0) Gecko/20100101 Firefox/111.0" etag="K9aWfIcjw_b5gMYp84g3" version="21.1.4" type="device">
  <diagram name="Page-1" id="IZV1Hm3tQNgpVBTpKS9V">
    <mxGraphModel dx="4280" dy="2176" grid="0" gridSize="10" guides="1" tooltips="1" connect="1" arrows="1" fold="1" page="1" pageScale="1" pageWidth="850" pageHeight="1100" math="0" shadow="0">
      <root>
        <mxCell id="0" />
        <mxCell id="1" parent="0" />
        <mxCell id="N9ieip7Yigwb-0SbCwRF-1" value="" style="rounded=0;whiteSpace=wrap;html=1;dashed=1;" parent="1" vertex="1">
          <mxGeometry x="-826" y="-130" width="903" height="1206" as="geometry" />
        </mxCell>
        <mxCell id="N9ieip7Yigwb-0SbCwRF-2" value="" style="rounded=0;whiteSpace=wrap;html=1;dashed=1;" parent="1" vertex="1">
          <mxGeometry x="-810" y="370" width="874" height="690" as="geometry" />
        </mxCell>
        <mxCell id="N9ieip7Yigwb-0SbCwRF-3" style="rounded=0;orthogonalLoop=1;jettySize=auto;html=1;exitX=0.25;exitY=1;exitDx=0;exitDy=0;entryX=0.5;entryY=0;entryDx=0;entryDy=0;endArrow=none;endFill=0;" parent="1" source="N9ieip7Yigwb-0SbCwRF-6" target="N9ieip7Yigwb-0SbCwRF-12" edge="1">
          <mxGeometry relative="1" as="geometry" />
        </mxCell>
        <mxCell id="N9ieip7Yigwb-0SbCwRF-4" style="rounded=0;orthogonalLoop=1;jettySize=auto;html=1;exitX=0;exitY=0.75;exitDx=0;exitDy=0;entryX=0.942;entryY=0.246;entryDx=0;entryDy=0;entryPerimeter=0;endArrow=none;endFill=0;" parent="1" source="N9ieip7Yigwb-0SbCwRF-6" target="N9ieip7Yigwb-0SbCwRF-11" edge="1">
          <mxGeometry relative="1" as="geometry" />
        </mxCell>
        <mxCell id="N9ieip7Yigwb-0SbCwRF-5" style="rounded=0;orthogonalLoop=1;jettySize=auto;html=1;exitX=0.5;exitY=1;exitDx=0;exitDy=0;entryX=0.5;entryY=0;entryDx=0;entryDy=0;endArrow=none;endFill=0;" parent="1" source="N9ieip7Yigwb-0SbCwRF-6" target="N9ieip7Yigwb-0SbCwRF-23" edge="1">
          <mxGeometry relative="1" as="geometry" />
        </mxCell>
        <mxCell id="N9ieip7Yigwb-0SbCwRF-6" value="&lt;font style=&quot;font-size: 18px;&quot;&gt;imit&lt;/font&gt;" style="rounded=0;whiteSpace=wrap;html=1;" parent="1" vertex="1">
          <mxGeometry x="-485" y="50" width="120" height="60" as="geometry" />
        </mxCell>
        <mxCell id="N9ieip7Yigwb-0SbCwRF-7" value="&lt;font style=&quot;font-size: 18px;&quot;&gt;templates&lt;/font&gt;" style="ellipse;whiteSpace=wrap;html=1;" parent="1" vertex="1">
          <mxGeometry x="-690" y="-30" width="120" height="80" as="geometry" />
        </mxCell>
        <mxCell id="N9ieip7Yigwb-0SbCwRF-8" value="&lt;font style=&quot;font-size: 18px;&quot;&gt;controllers&lt;/font&gt;" style="ellipse;whiteSpace=wrap;html=1;" parent="1" vertex="1">
          <mxGeometry x="-700" y="60" width="120" height="80" as="geometry" />
        </mxCell>
        <mxCell id="N9ieip7Yigwb-0SbCwRF-9" value="&lt;font style=&quot;font-size: 18px;&quot;&gt;static&lt;/font&gt;" style="ellipse;whiteSpace=wrap;html=1;" parent="1" vertex="1">
          <mxGeometry x="-485" y="-100" width="120" height="80" as="geometry" />
        </mxCell>
        <mxCell id="N9ieip7Yigwb-0SbCwRF-10" value="&lt;font style=&quot;font-size: 18px;&quot;&gt;translations&lt;/font&gt;" style="ellipse;whiteSpace=wrap;html=1;" parent="1" vertex="1">
          <mxGeometry x="-290" y="-30" width="120" height="80" as="geometry" />
        </mxCell>
        <mxCell id="N9ieip7Yigwb-0SbCwRF-11" value="&lt;font style=&quot;font-size: 18px;&quot;&gt;migrations&lt;/font&gt;" style="ellipse;whiteSpace=wrap;html=1;" parent="1" vertex="1">
          <mxGeometry x="-670" y="140" width="120" height="80" as="geometry" />
        </mxCell>
        <mxCell id="N9ieip7Yigwb-0SbCwRF-12" value="&lt;font style=&quot;font-size: 18px;&quot;&gt;__init__.py&lt;/font&gt;" style="ellipse;whiteSpace=wrap;html=1;" parent="1" vertex="1">
          <mxGeometry x="-570" y="200" width="120" height="80" as="geometry" />
        </mxCell>
        <mxCell id="N9ieip7Yigwb-0SbCwRF-13" value="&lt;font style=&quot;font-size: 18px;&quot;&gt;config.py&lt;/font&gt;" style="ellipse;whiteSpace=wrap;html=1;" parent="1" vertex="1">
          <mxGeometry x="-620" y="-100" width="120" height="80" as="geometry" />
        </mxCell>
        <mxCell id="N9ieip7Yigwb-0SbCwRF-14" value="&lt;div&gt;&lt;font style=&quot;font-size: 18px;&quot;&gt;forms.py&lt;/font&gt;&lt;/div&gt;" style="ellipse;whiteSpace=wrap;html=1;" parent="1" vertex="1">
          <mxGeometry x="-360" y="-100" width="120" height="80" as="geometry" />
        </mxCell>
        <mxCell id="N9ieip7Yigwb-0SbCwRF-15" style="edgeStyle=orthogonalEdgeStyle;rounded=0;orthogonalLoop=1;jettySize=auto;html=1;exitX=1;exitY=0.5;exitDx=0;exitDy=0;entryX=0;entryY=0.5;entryDx=0;entryDy=0;endArrow=none;endFill=0;" parent="1" source="N9ieip7Yigwb-0SbCwRF-16" target="N9ieip7Yigwb-0SbCwRF-62" edge="1">
          <mxGeometry relative="1" as="geometry" />
        </mxCell>
        <mxCell id="N9ieip7Yigwb-0SbCwRF-16" value="&lt;font style=&quot;font-size: 18px;&quot;&gt;models.py&lt;/font&gt;" style="ellipse;whiteSpace=wrap;html=1;" parent="1" vertex="1">
          <mxGeometry x="-270" y="60" width="120" height="80" as="geometry" />
        </mxCell>
        <mxCell id="N9ieip7Yigwb-0SbCwRF-17" value="&lt;font style=&quot;font-size: 18px;&quot;&gt;utils.py&lt;/font&gt;" style="ellipse;whiteSpace=wrap;html=1;" parent="1" vertex="1">
          <mxGeometry x="-290" y="150" width="120" height="80" as="geometry" />
        </mxCell>
        <mxCell id="N9ieip7Yigwb-0SbCwRF-18" value="&lt;font style=&quot;font-size: 18px;&quot;&gt;LOG_FILE&lt;/font&gt;" style="ellipse;whiteSpace=wrap;html=1;" parent="1" vertex="1">
          <mxGeometry x="-410" y="200" width="120" height="80" as="geometry" />
        </mxCell>
        <mxCell id="N9ieip7Yigwb-0SbCwRF-19" style="rounded=0;orthogonalLoop=1;jettySize=auto;html=1;exitX=0.681;exitY=0.048;exitDx=0;exitDy=0;entryX=0.5;entryY=1;entryDx=0;entryDy=0;startArrow=classic;startFill=1;exitPerimeter=0;" parent="1" source="N9ieip7Yigwb-0SbCwRF-23" target="N9ieip7Yigwb-0SbCwRF-18" edge="1">
          <mxGeometry relative="1" as="geometry" />
        </mxCell>
        <mxCell id="N9ieip7Yigwb-0SbCwRF-20" value="&lt;font style=&quot;font-size: 18px;&quot;&gt;Логирование&lt;/font&gt;" style="edgeLabel;html=1;align=center;verticalAlign=middle;resizable=0;points=[];" parent="N9ieip7Yigwb-0SbCwRF-19" vertex="1" connectable="0">
          <mxGeometry x="0.1773" y="2" relative="1" as="geometry">
            <mxPoint as="offset" />
          </mxGeometry>
        </mxCell>
        <mxCell id="N9ieip7Yigwb-0SbCwRF-21" style="rounded=0;orthogonalLoop=1;jettySize=auto;html=1;exitX=0;exitY=1;exitDx=0;exitDy=0;entryX=1;entryY=0;entryDx=0;entryDy=0;endArrow=none;endFill=0;" parent="1" source="N9ieip7Yigwb-0SbCwRF-23" target="N9ieip7Yigwb-0SbCwRF-43" edge="1">
          <mxGeometry relative="1" as="geometry" />
        </mxCell>
        <mxCell id="N9ieip7Yigwb-0SbCwRF-22" style="rounded=0;orthogonalLoop=1;jettySize=auto;html=1;exitX=0;exitY=1;exitDx=0;exitDy=0;entryX=1;entryY=0;entryDx=0;entryDy=0;endArrow=none;endFill=0;" parent="1" source="N9ieip7Yigwb-0SbCwRF-23" target="N9ieip7Yigwb-0SbCwRF-36" edge="1">
          <mxGeometry relative="1" as="geometry" />
        </mxCell>
        <mxCell id="N9ieip7Yigwb-0SbCwRF-23" value="&lt;font style=&quot;font-size: 18px;&quot;&gt;Autoreport&lt;/font&gt;" style="ellipse;whiteSpace=wrap;html=1;" parent="1" vertex="1">
          <mxGeometry x="-485" y="440" width="120" height="80" as="geometry" />
        </mxCell>
        <mxCell id="N9ieip7Yigwb-0SbCwRF-24" style="rounded=0;orthogonalLoop=1;jettySize=auto;html=1;exitX=0;exitY=0.5;exitDx=0;exitDy=0;entryX=1;entryY=0.5;entryDx=0;entryDy=0;endArrow=none;endFill=0;" parent="1" source="N9ieip7Yigwb-0SbCwRF-6" target="N9ieip7Yigwb-0SbCwRF-8" edge="1">
          <mxGeometry relative="1" as="geometry">
            <mxPoint x="-445" y="120" as="sourcePoint" />
            <mxPoint x="-478" y="222" as="targetPoint" />
          </mxGeometry>
        </mxCell>
        <mxCell id="N9ieip7Yigwb-0SbCwRF-25" style="rounded=0;orthogonalLoop=1;jettySize=auto;html=1;exitX=0;exitY=0.25;exitDx=0;exitDy=0;entryX=1;entryY=0.5;entryDx=0;entryDy=0;endArrow=none;endFill=0;" parent="1" source="N9ieip7Yigwb-0SbCwRF-6" target="N9ieip7Yigwb-0SbCwRF-7" edge="1">
          <mxGeometry relative="1" as="geometry">
            <mxPoint x="-475" y="90" as="sourcePoint" />
            <mxPoint x="-570" y="110" as="targetPoint" />
          </mxGeometry>
        </mxCell>
        <mxCell id="N9ieip7Yigwb-0SbCwRF-26" style="rounded=0;orthogonalLoop=1;jettySize=auto;html=1;exitX=0.25;exitY=0;exitDx=0;exitDy=0;entryX=0.733;entryY=0.975;entryDx=0;entryDy=0;endArrow=none;endFill=0;entryPerimeter=0;" parent="1" source="N9ieip7Yigwb-0SbCwRF-6" target="N9ieip7Yigwb-0SbCwRF-13" edge="1">
          <mxGeometry relative="1" as="geometry">
            <mxPoint x="-475" y="90" as="sourcePoint" />
            <mxPoint x="-550" y="30" as="targetPoint" />
          </mxGeometry>
        </mxCell>
        <mxCell id="N9ieip7Yigwb-0SbCwRF-27" style="rounded=0;orthogonalLoop=1;jettySize=auto;html=1;exitX=0.5;exitY=0;exitDx=0;exitDy=0;entryX=0.5;entryY=1;entryDx=0;entryDy=0;endArrow=none;endFill=0;" parent="1" source="N9ieip7Yigwb-0SbCwRF-6" target="N9ieip7Yigwb-0SbCwRF-9" edge="1">
          <mxGeometry relative="1" as="geometry">
            <mxPoint x="-475" y="60" as="sourcePoint" />
            <mxPoint x="-522" y="-12" as="targetPoint" />
          </mxGeometry>
        </mxCell>
        <mxCell id="N9ieip7Yigwb-0SbCwRF-28" style="rounded=0;orthogonalLoop=1;jettySize=auto;html=1;exitX=1;exitY=1;exitDx=0;exitDy=0;entryX=0;entryY=0;entryDx=0;entryDy=0;endArrow=none;endFill=0;" parent="1" source="N9ieip7Yigwb-0SbCwRF-6" target="N9ieip7Yigwb-0SbCwRF-17" edge="1">
          <mxGeometry relative="1" as="geometry">
            <mxPoint x="-415" y="60" as="sourcePoint" />
            <mxPoint x="-415" y="-10" as="targetPoint" />
          </mxGeometry>
        </mxCell>
        <mxCell id="N9ieip7Yigwb-0SbCwRF-29" style="rounded=0;orthogonalLoop=1;jettySize=auto;html=1;exitX=1;exitY=0.25;exitDx=0;exitDy=0;entryX=0;entryY=0.5;entryDx=0;entryDy=0;endArrow=none;endFill=0;" parent="1" source="N9ieip7Yigwb-0SbCwRF-6" target="N9ieip7Yigwb-0SbCwRF-10" edge="1">
          <mxGeometry relative="1" as="geometry">
            <mxPoint x="-355" y="60" as="sourcePoint" />
            <mxPoint x="-310" y="-14" as="targetPoint" />
          </mxGeometry>
        </mxCell>
        <mxCell id="N9ieip7Yigwb-0SbCwRF-30" style="rounded=0;orthogonalLoop=1;jettySize=auto;html=1;exitX=1;exitY=0.5;exitDx=0;exitDy=0;entryX=0;entryY=0.5;entryDx=0;entryDy=0;endArrow=none;endFill=0;" parent="1" source="N9ieip7Yigwb-0SbCwRF-6" target="N9ieip7Yigwb-0SbCwRF-16" edge="1">
          <mxGeometry relative="1" as="geometry">
            <mxPoint x="-355" y="75" as="sourcePoint" />
            <mxPoint x="-280" y="30" as="targetPoint" />
          </mxGeometry>
        </mxCell>
        <mxCell id="N9ieip7Yigwb-0SbCwRF-31" style="rounded=0;orthogonalLoop=1;jettySize=auto;html=1;exitX=0.75;exitY=0;exitDx=0;exitDy=0;entryX=0;entryY=1;entryDx=0;entryDy=0;endArrow=none;endFill=0;" parent="1" source="N9ieip7Yigwb-0SbCwRF-6" target="N9ieip7Yigwb-0SbCwRF-14" edge="1">
          <mxGeometry relative="1" as="geometry">
            <mxPoint x="-355" y="90" as="sourcePoint" />
            <mxPoint x="-260" y="110" as="targetPoint" />
          </mxGeometry>
        </mxCell>
        <mxCell id="N9ieip7Yigwb-0SbCwRF-32" style="rounded=0;orthogonalLoop=1;jettySize=auto;html=1;exitX=0.75;exitY=1;exitDx=0;exitDy=0;entryX=0.5;entryY=0;entryDx=0;entryDy=0;endArrow=none;endFill=0;" parent="1" source="N9ieip7Yigwb-0SbCwRF-6" target="N9ieip7Yigwb-0SbCwRF-18" edge="1">
          <mxGeometry relative="1" as="geometry">
            <mxPoint x="-355" y="105" as="sourcePoint" />
            <mxPoint x="-262" y="162" as="targetPoint" />
          </mxGeometry>
        </mxCell>
        <mxCell id="N9ieip7Yigwb-0SbCwRF-33" style="rounded=0;orthogonalLoop=1;jettySize=auto;html=1;exitX=0;exitY=0;exitDx=0;exitDy=0;entryX=0.5;entryY=1;entryDx=0;entryDy=0;startArrow=classic;startFill=1;" parent="1" source="N9ieip7Yigwb-0SbCwRF-23" target="N9ieip7Yigwb-0SbCwRF-12" edge="1">
          <mxGeometry relative="1" as="geometry">
            <mxPoint x="-373" y="422" as="sourcePoint" />
            <mxPoint x="-300" y="290" as="targetPoint" />
          </mxGeometry>
        </mxCell>
        <mxCell id="N9ieip7Yigwb-0SbCwRF-34" value="&lt;font style=&quot;font-size: 18px;&quot;&gt;blueprint&lt;/font&gt;" style="edgeLabel;html=1;align=center;verticalAlign=middle;resizable=0;points=[];" parent="N9ieip7Yigwb-0SbCwRF-33" vertex="1" connectable="0">
          <mxGeometry x="0.1773" y="2" relative="1" as="geometry">
            <mxPoint as="offset" />
          </mxGeometry>
        </mxCell>
        <mxCell id="N9ieip7Yigwb-0SbCwRF-35" value="&lt;font style=&quot;font-size: 18px;&quot;&gt;templates&lt;/font&gt;" style="ellipse;whiteSpace=wrap;html=1;" parent="1" vertex="1">
          <mxGeometry x="-136" y="460" width="120" height="80" as="geometry" />
        </mxCell>
        <mxCell id="N9ieip7Yigwb-0SbCwRF-36" value="&lt;div&gt;&lt;font style=&quot;font-size: 18px;&quot;&gt;controllers&lt;br&gt;&lt;/font&gt;&lt;/div&gt;&lt;div&gt;&lt;font style=&quot;font-size: 18px;&quot;&gt;&lt;br&gt;&lt;/font&gt;&lt;/div&gt;&lt;div&gt;&lt;font style=&quot;font-size: 18px;&quot;&gt;&lt;br&gt;&lt;/font&gt;&lt;/div&gt;&lt;div&gt;&lt;br&gt;&lt;/div&gt;&lt;div&gt;&lt;br&gt;&lt;/div&gt;" style="ellipse;whiteSpace=wrap;html=1;" parent="1" vertex="1">
          <mxGeometry x="-800" y="798" width="200" height="130" as="geometry" />
        </mxCell>
        <mxCell id="N9ieip7Yigwb-0SbCwRF-37" value="&lt;font style=&quot;font-size: 18px;&quot;&gt;static&lt;/font&gt;" style="ellipse;whiteSpace=wrap;html=1;" parent="1" vertex="1">
          <mxGeometry x="-244.5" y="386" width="120" height="80" as="geometry" />
        </mxCell>
        <mxCell id="N9ieip7Yigwb-0SbCwRF-38" style="rounded=0;orthogonalLoop=1;jettySize=auto;html=1;exitX=1;exitY=0.5;exitDx=0;exitDy=0;entryX=0;entryY=0.5;entryDx=0;entryDy=0;startArrow=classic;startFill=1;" parent="1" source="N9ieip7Yigwb-0SbCwRF-39" target="N9ieip7Yigwb-0SbCwRF-40" edge="1">
          <mxGeometry relative="1" as="geometry" />
        </mxCell>
        <mxCell id="N9ieip7Yigwb-0SbCwRF-39" value="&lt;font style=&quot;font-size: 18px;&quot;&gt;autoreport.py&lt;/font&gt;" style="ellipse;whiteSpace=wrap;html=1;" parent="1" vertex="1">
          <mxGeometry x="-765" y="848" width="130" height="70" as="geometry" />
        </mxCell>
        <mxCell id="N9ieip7Yigwb-0SbCwRF-40" value="&lt;font style=&quot;font-size: 18px;&quot;&gt;funcs.py&lt;/font&gt;" style="ellipse;whiteSpace=wrap;html=1;" parent="1" vertex="1">
          <mxGeometry x="-550" y="827" width="135" height="80" as="geometry" />
        </mxCell>
        <mxCell id="N9ieip7Yigwb-0SbCwRF-41" value="&lt;font style=&quot;font-size: 18px;&quot;&gt;tests&lt;/font&gt;" style="ellipse;whiteSpace=wrap;html=1;" parent="1" vertex="1">
          <mxGeometry x="-777" y="485" width="120" height="80" as="geometry" />
        </mxCell>
        <mxCell id="N9ieip7Yigwb-0SbCwRF-42" value="&lt;font style=&quot;font-size: 18px;&quot;&gt;docs&lt;/font&gt;" style="ellipse;whiteSpace=wrap;html=1;" parent="1" vertex="1">
          <mxGeometry x="-164" y="574" width="120" height="80" as="geometry" />
        </mxCell>
        <mxCell id="N9ieip7Yigwb-0SbCwRF-43" value="&lt;font style=&quot;font-size: 18px;&quot;&gt;config.py&lt;/font&gt;" style="ellipse;whiteSpace=wrap;html=1;" parent="1" vertex="1">
          <mxGeometry x="-764" y="583" width="120" height="80" as="geometry" />
        </mxCell>
        <mxCell id="N9ieip7Yigwb-0SbCwRF-44" value="&lt;font style=&quot;font-size: 18px;&quot;&gt;config.txt&lt;/font&gt;" style="ellipse;whiteSpace=wrap;html=1;" parent="1" vertex="1">
          <mxGeometry x="-733" y="687" width="120" height="80" as="geometry" />
        </mxCell>
        <mxCell id="N9ieip7Yigwb-0SbCwRF-45" style="rounded=0;orthogonalLoop=1;jettySize=auto;html=1;exitX=0.5;exitY=1;exitDx=0;exitDy=0;entryX=1;entryY=0;entryDx=0;entryDy=0;endArrow=none;endFill=0;" parent="1" source="N9ieip7Yigwb-0SbCwRF-23" target="N9ieip7Yigwb-0SbCwRF-40" edge="1">
          <mxGeometry relative="1" as="geometry">
            <mxPoint x="-475" y="490" as="sourcePoint" />
            <mxPoint x="-560" y="450" as="targetPoint" />
          </mxGeometry>
        </mxCell>
        <mxCell id="N9ieip7Yigwb-0SbCwRF-46" style="rounded=0;orthogonalLoop=1;jettySize=auto;html=1;exitX=0.5;exitY=1;exitDx=0;exitDy=0;endArrow=none;endFill=0;entryX=0.5;entryY=0;entryDx=0;entryDy=0;" parent="1" source="N9ieip7Yigwb-0SbCwRF-23" target="N9ieip7Yigwb-0SbCwRF-63" edge="1">
          <mxGeometry relative="1" as="geometry">
            <mxPoint x="-475" y="490" as="sourcePoint" />
            <mxPoint x="-502.5" y="750" as="targetPoint" />
          </mxGeometry>
        </mxCell>
        <mxCell id="N9ieip7Yigwb-0SbCwRF-47" style="rounded=0;orthogonalLoop=1;jettySize=auto;html=1;exitX=0;exitY=1;exitDx=0;exitDy=0;entryX=1;entryY=0;entryDx=0;entryDy=0;endArrow=none;endFill=0;" parent="1" source="N9ieip7Yigwb-0SbCwRF-23" target="N9ieip7Yigwb-0SbCwRF-44" edge="1">
          <mxGeometry relative="1" as="geometry">
            <mxPoint x="-373" y="518" as="sourcePoint" />
            <mxPoint x="-232" y="832" as="targetPoint" />
          </mxGeometry>
        </mxCell>
        <mxCell id="N9ieip7Yigwb-0SbCwRF-48" style="rounded=0;orthogonalLoop=1;jettySize=auto;html=1;exitX=0;exitY=0.5;exitDx=0;exitDy=0;entryX=1;entryY=0.5;entryDx=0;entryDy=0;endArrow=none;endFill=0;" parent="1" source="N9ieip7Yigwb-0SbCwRF-23" target="N9ieip7Yigwb-0SbCwRF-41" edge="1">
          <mxGeometry relative="1" as="geometry">
            <mxPoint x="-373" y="518" as="sourcePoint" />
            <mxPoint x="-192" y="742" as="targetPoint" />
          </mxGeometry>
        </mxCell>
        <mxCell id="N9ieip7Yigwb-0SbCwRF-49" style="rounded=0;orthogonalLoop=1;jettySize=auto;html=1;exitX=1;exitY=0.5;exitDx=0;exitDy=0;entryX=0;entryY=0.5;entryDx=0;entryDy=0;endArrow=none;endFill=0;" parent="1" source="N9ieip7Yigwb-0SbCwRF-23" target="N9ieip7Yigwb-0SbCwRF-42" edge="1">
          <mxGeometry relative="1" as="geometry">
            <mxPoint x="-373" y="518" as="sourcePoint" />
            <mxPoint x="-170" y="690" as="targetPoint" />
          </mxGeometry>
        </mxCell>
        <mxCell id="N9ieip7Yigwb-0SbCwRF-50" style="rounded=0;orthogonalLoop=1;jettySize=auto;html=1;exitX=1;exitY=0.5;exitDx=0;exitDy=0;entryX=0;entryY=0.5;entryDx=0;entryDy=0;endArrow=none;endFill=0;" parent="1" source="N9ieip7Yigwb-0SbCwRF-23" target="N9ieip7Yigwb-0SbCwRF-37" edge="1">
          <mxGeometry relative="1" as="geometry">
            <mxPoint x="-355" y="490" as="sourcePoint" />
            <mxPoint x="-150" y="600" as="targetPoint" />
          </mxGeometry>
        </mxCell>
        <mxCell id="N9ieip7Yigwb-0SbCwRF-51" style="rounded=0;orthogonalLoop=1;jettySize=auto;html=1;exitX=1;exitY=0.5;exitDx=0;exitDy=0;entryX=0;entryY=0.5;entryDx=0;entryDy=0;endArrow=none;endFill=0;" parent="1" source="N9ieip7Yigwb-0SbCwRF-23" target="N9ieip7Yigwb-0SbCwRF-35" edge="1">
          <mxGeometry relative="1" as="geometry">
            <mxPoint x="-355" y="490" as="sourcePoint" />
            <mxPoint x="-280" y="440" as="targetPoint" />
          </mxGeometry>
        </mxCell>
        <mxCell id="N9ieip7Yigwb-0SbCwRF-52" value="&lt;font style=&quot;font-size: 18px;&quot;&gt;Autoreport&lt;/font&gt;" style="text;html=1;strokeColor=none;fillColor=none;align=center;verticalAlign=middle;whiteSpace=wrap;rounded=0;" parent="1" vertex="1">
          <mxGeometry x="-130" y="370" width="100" height="30" as="geometry" />
        </mxCell>
        <mxCell id="N9ieip7Yigwb-0SbCwRF-53" value="&lt;font style=&quot;font-size: 18px;&quot;&gt;imit&lt;/font&gt;" style="text;html=1;strokeColor=none;fillColor=none;align=center;verticalAlign=middle;whiteSpace=wrap;rounded=0;" parent="1" vertex="1">
          <mxGeometry x="-110" y="-130" width="100" height="30" as="geometry" />
        </mxCell>
        <mxCell id="N9ieip7Yigwb-0SbCwRF-54" value="&lt;font style=&quot;font-size: 18px;&quot;&gt;Пользователь&lt;/font&gt;" style="shape=umlActor;verticalLabelPosition=bottom;verticalAlign=top;html=1;outlineConnect=0;" parent="1" vertex="1">
          <mxGeometry x="-956" y="830" width="60" height="110" as="geometry" />
        </mxCell>
        <mxCell id="N9ieip7Yigwb-0SbCwRF-55" style="rounded=0;orthogonalLoop=1;jettySize=auto;html=1;entryX=0;entryY=0.5;entryDx=0;entryDy=0;startArrow=classic;startFill=1;" parent="1" source="N9ieip7Yigwb-0SbCwRF-54" target="N9ieip7Yigwb-0SbCwRF-39" edge="1">
          <mxGeometry relative="1" as="geometry">
            <mxPoint x="-670" y="530" as="sourcePoint" />
            <mxPoint x="-635" y="550" as="targetPoint" />
          </mxGeometry>
        </mxCell>
        <mxCell id="N9ieip7Yigwb-0SbCwRF-57" style="rounded=0;orthogonalLoop=1;jettySize=auto;html=1;exitX=1;exitY=0.5;exitDx=0;exitDy=0;entryX=0;entryY=0.5;entryDx=0;entryDy=0;startArrow=classic;startFill=1;" parent="1" source="N9ieip7Yigwb-0SbCwRF-40" target="N9ieip7Yigwb-0SbCwRF-63" edge="1">
          <mxGeometry relative="1" as="geometry">
            <mxPoint x="-688" y="558" as="sourcePoint" />
            <mxPoint x="-680" y="682" as="targetPoint" />
          </mxGeometry>
        </mxCell>
        <mxCell id="N9ieip7Yigwb-0SbCwRF-58" value="&lt;font style=&quot;font-size: 18px;&quot;&gt;models&lt;/font&gt;" style="ellipse;whiteSpace=wrap;html=1;" parent="1" vertex="1">
          <mxGeometry x="-777" y="391" width="120" height="80" as="geometry" />
        </mxCell>
        <mxCell id="N9ieip7Yigwb-0SbCwRF-59" style="rounded=0;orthogonalLoop=1;jettySize=auto;html=1;exitX=0;exitY=0.5;exitDx=0;exitDy=0;entryX=1;entryY=0.5;entryDx=0;entryDy=0;endArrow=none;endFill=0;" parent="1" source="N9ieip7Yigwb-0SbCwRF-23" target="N9ieip7Yigwb-0SbCwRF-58" edge="1">
          <mxGeometry relative="1" as="geometry">
            <mxPoint x="-415" y="530" as="sourcePoint" />
            <mxPoint x="-200" y="790" as="targetPoint" />
          </mxGeometry>
        </mxCell>
        <mxCell id="N9ieip7Yigwb-0SbCwRF-60" style="rounded=0;orthogonalLoop=1;jettySize=auto;html=1;exitX=1;exitY=0;exitDx=0;exitDy=0;entryX=0.5;entryY=1;entryDx=0;entryDy=0;startArrow=classic;startFill=1;" parent="1" source="N9ieip7Yigwb-0SbCwRF-23" target="N9ieip7Yigwb-0SbCwRF-17" edge="1">
          <mxGeometry relative="1" as="geometry">
            <mxPoint x="-393" y="454" as="sourcePoint" />
            <mxPoint x="-340" y="290" as="targetPoint" />
          </mxGeometry>
        </mxCell>
        <mxCell id="N9ieip7Yigwb-0SbCwRF-61" value="&lt;font style=&quot;font-size: 18px;&quot;&gt;Проверка роли&lt;br&gt;&lt;/font&gt;" style="edgeLabel;html=1;align=center;verticalAlign=middle;resizable=0;points=[];" parent="N9ieip7Yigwb-0SbCwRF-60" vertex="1" connectable="0">
          <mxGeometry x="0.1773" y="2" relative="1" as="geometry">
            <mxPoint x="24" y="-10" as="offset" />
          </mxGeometry>
        </mxCell>
        <mxCell id="N9ieip7Yigwb-0SbCwRF-62" value="&lt;div&gt;&lt;font style=&quot;font-size: 18px;&quot;&gt;Определение&lt;/font&gt;&lt;/div&gt;&lt;div&gt;&lt;font style=&quot;font-size: 18px;&quot;&gt;ролей&lt;br&gt;&lt;/font&gt;&lt;/div&gt;" style="rounded=0;whiteSpace=wrap;html=1;" parent="1" vertex="1">
          <mxGeometry x="-103" y="27" width="140" height="60" as="geometry" />
        </mxCell>
        <mxCell id="N9ieip7Yigwb-0SbCwRF-74" value="&lt;font style=&quot;font-size: 18px;&quot;&gt;Файловая система ИМИТ&lt;br&gt;&lt;/font&gt;" style="sketch=0;outlineConnect=0;fontColor=#232F3E;gradientColor=none;fillColor=#000000;strokeColor=none;dashed=0;verticalLabelPosition=bottom;verticalAlign=top;align=center;html=1;fontSize=12;fontStyle=0;aspect=fixed;pointerEvents=1;shape=mxgraph.aws4.file_system;" parent="1" vertex="1">
          <mxGeometry x="262" y="761" width="78" height="73" as="geometry" />
        </mxCell>
        <mxCell id="N9ieip7Yigwb-0SbCwRF-75" value="&lt;font style=&quot;font-size: 18px;&quot;&gt;БД&lt;/font&gt;" style="shape=datastore;whiteSpace=wrap;html=1;" parent="1" vertex="1">
          <mxGeometry x="259" y="873" width="89" height="106" as="geometry" />
        </mxCell>
        <mxCell id="N9ieip7Yigwb-0SbCwRF-79" style="edgeStyle=orthogonalEdgeStyle;rounded=0;orthogonalLoop=1;jettySize=auto;html=1;exitX=1;exitY=0.5;exitDx=0;exitDy=0;entryX=0;entryY=0.5;entryDx=0;entryDy=0;endArrow=none;endFill=0;" parent="1" source="N9ieip7Yigwb-0SbCwRF-16" target="N9ieip7Yigwb-0SbCwRF-80" edge="1">
          <mxGeometry relative="1" as="geometry">
            <mxPoint x="-150" y="115" as="sourcePoint" />
          </mxGeometry>
        </mxCell>
        <mxCell id="N9ieip7Yigwb-0SbCwRF-80" value="&lt;div&gt;&lt;font style=&quot;font-size: 18px;&quot;&gt;Определение&lt;/font&gt;&lt;/div&gt;&lt;div&gt;&lt;font style=&quot;font-size: 18px;&quot;&gt;пользователей&lt;br&gt;&lt;/font&gt;&lt;/div&gt;" style="rounded=0;whiteSpace=wrap;html=1;" parent="1" vertex="1">
          <mxGeometry x="-103" y="113" width="140" height="60" as="geometry" />
        </mxCell>
        <mxCell id="N9ieip7Yigwb-0SbCwRF-63" value="&lt;div&gt;&lt;font style=&quot;font-size: 18px;&quot;&gt;modules&lt;br&gt;&lt;/font&gt;&lt;/div&gt;&lt;div&gt;&lt;font style=&quot;font-size: 18px;&quot;&gt;&lt;br&gt;&lt;/font&gt;&lt;/div&gt;&lt;div&gt;&lt;font style=&quot;font-size: 18px;&quot;&gt;&lt;br&gt;&lt;/font&gt;&lt;/div&gt;&lt;div&gt;&lt;font style=&quot;font-size: 18px;&quot;&gt;&lt;br&gt;&lt;/font&gt;&lt;/div&gt;&lt;div&gt;&lt;font style=&quot;font-size: 18px;&quot;&gt;&lt;br&gt;&lt;/font&gt;&lt;/div&gt;&lt;div&gt;&lt;font style=&quot;font-size: 18px;&quot;&gt;&lt;br&gt;&lt;/font&gt;&lt;/div&gt;&lt;div&gt;&lt;font style=&quot;font-size: 18px;&quot;&gt;&lt;br&gt;&lt;/font&gt;&lt;/div&gt;&lt;div&gt;&lt;font style=&quot;font-size: 18px;&quot;&gt;&lt;br&gt;&lt;/font&gt;&lt;/div&gt;&lt;div&gt;&lt;font style=&quot;font-size: 18px;&quot;&gt;&lt;br&gt;&lt;/font&gt;&lt;/div&gt;&lt;div&gt;&lt;br&gt;&lt;/div&gt;&lt;div&gt;&lt;br&gt;&lt;/div&gt;&lt;div&gt;&lt;br&gt;&lt;/div&gt;&lt;div&gt;&lt;br&gt;&lt;/div&gt;&lt;div&gt;&lt;br&gt;&lt;/div&gt;&lt;div&gt;&lt;br&gt;&lt;/div&gt;&lt;div&gt;&lt;br&gt;&lt;/div&gt;&lt;div&gt;&lt;br&gt;&lt;/div&gt;&lt;div&gt;&lt;br&gt;&lt;/div&gt;&lt;div&gt;&lt;br&gt;&lt;/div&gt;" style="ellipse;whiteSpace=wrap;html=1;" parent="1" vertex="1">
          <mxGeometry x="-378" y="687" width="439" height="360" as="geometry" />
        </mxCell>
        <mxCell id="N9ieip7Yigwb-0SbCwRF-64" value="&lt;font style=&quot;font-size: 18px;&quot;&gt;curriculum_getter.py&lt;/font&gt;" style="ellipse;whiteSpace=wrap;html=1;" parent="1" vertex="1">
          <mxGeometry x="-248.5" y="886" width="180" height="70" as="geometry" />
        </mxCell>
        <mxCell id="N9ieip7Yigwb-0SbCwRF-65" value="&lt;font style=&quot;font-size: 18px;&quot;&gt;curriculum_parser.py&lt;/font&gt;" style="ellipse;whiteSpace=wrap;html=1;" parent="1" vertex="1">
          <mxGeometry x="-248.5" y="807" width="180" height="70" as="geometry" />
        </mxCell>
        <mxCell id="N9ieip7Yigwb-0SbCwRF-66" value="&lt;font style=&quot;font-size: 18px;&quot;&gt;report_generator.py&lt;/font&gt;" style="ellipse;whiteSpace=wrap;html=1;" parent="1" vertex="1">
          <mxGeometry x="-243.5" y="728" width="170" height="70" as="geometry" />
        </mxCell>
        <mxCell id="Ub1_vusqEFFK5saVrgV2-2" value="&lt;font style=&quot;font-size: 18px;&quot;&gt;report_state.py&lt;/font&gt;" style="ellipse;whiteSpace=wrap;html=1;" vertex="1" parent="1">
          <mxGeometry x="-248.5" y="965" width="180" height="70" as="geometry" />
        </mxCell>
        <mxCell id="N9ieip7Yigwb-0SbCwRF-77" style="rounded=0;orthogonalLoop=1;jettySize=auto;html=1;entryX=0.938;entryY=0.22;entryDx=0;entryDy=0;entryPerimeter=0;" parent="1" source="N9ieip7Yigwb-0SbCwRF-74" target="N9ieip7Yigwb-0SbCwRF-65" edge="1">
          <mxGeometry relative="1" as="geometry">
            <mxPoint x="-29" y="932" as="sourcePoint" />
            <mxPoint x="267" y="942" as="targetPoint" />
          </mxGeometry>
        </mxCell>
        <mxCell id="N9ieip7Yigwb-0SbCwRF-78" style="rounded=0;orthogonalLoop=1;jettySize=auto;html=1;entryX=1;entryY=0.5;entryDx=0;entryDy=0;exitX=0;exitY=0.5;exitDx=0;exitDy=0;" parent="1" source="N9ieip7Yigwb-0SbCwRF-75" target="N9ieip7Yigwb-0SbCwRF-64" edge="1">
          <mxGeometry relative="1" as="geometry">
            <mxPoint x="267" y="942" as="sourcePoint" />
            <mxPoint x="-29" y="932" as="targetPoint" />
          </mxGeometry>
        </mxCell>
        <mxCell id="N9ieip7Yigwb-0SbCwRF-76" style="rounded=0;orthogonalLoop=1;jettySize=auto;html=1;entryX=0;entryY=0.3;entryDx=0;entryDy=0;exitX=0.954;exitY=0.71;exitDx=0;exitDy=0;exitPerimeter=0;" parent="1" source="N9ieip7Yigwb-0SbCwRF-65" target="N9ieip7Yigwb-0SbCwRF-75" edge="1">
          <mxGeometry relative="1" as="geometry" />
        </mxCell>
        <mxCell id="Ub1_vusqEFFK5saVrgV2-3" style="rounded=0;orthogonalLoop=1;jettySize=auto;html=1;entryX=1;entryY=0.5;entryDx=0;entryDy=0;exitX=0;exitY=0.7;exitDx=0;exitDy=0;startArrow=classic;startFill=1;" edge="1" parent="1" source="N9ieip7Yigwb-0SbCwRF-75" target="Ub1_vusqEFFK5saVrgV2-2">
          <mxGeometry relative="1" as="geometry">
            <mxPoint x="272" y="982" as="sourcePoint" />
            <mxPoint x="-56" y="977" as="targetPoint" />
          </mxGeometry>
        </mxCell>
      </root>
    </mxGraphModel>
  </diagram>
</mxfile>
